<svg xmlns="http://www.w3.org/2000/svg" viewBox="0 0 800 600" fill="none">
  <rect width="800" height="600" rx="12" fill="#0f172a"/>
  <!-- Sidebar -->
  <rect width="200" height="600" rx="12" fill="url(#sideGrad3)"/>
  <defs>
    <linearGradient id="sideGrad3" x1="0" y1="0" x2="0" y2="600" gradientUnits="userSpaceOnUse">
      <stop offset="0%" stop-color="#78350f"/>
      <stop offset="100%" stop-color="#451a03"/>
    </linearGradient>
  </defs>
  <!-- Logo -->
  <rect x="20" y="20" width="40" height="40" rx="10" fill="#f59e0b" opacity="0.3"/>
  <rect x="68" y="28" width="100" height="12" rx="3" fill="#fef3c7" opacity="0.8"/>
  <rect x="68" y="44" width="60" height="8" rx="2" fill="#fde68a" opacity="0.4"/>
  <!-- Sidebar items -->
  <rect x="28" y="92" width="80" height="10" rx="2" fill="#fde68a" opacity="0.5"/>
  <rect x="12" y="113" width="176" height="36" rx="8" fill="#f59e0b" opacity="0.2"/>
  <rect x="28" y="125" width="70" height="10" rx="2" fill="#fef3c7"/>
  <rect x="28" y="162" width="90" height="10" rx="2" fill="#fde68a" opacity="0.5"/>
  <rect x="28" y="190" width="60" height="10" rx="2" fill="#fde68a" opacity="0.5"/>
  <rect x="28" y="218" width="80" height="10" rx="2" fill="#fde68a" opacity="0.5"/>
  <rect x="28" y="246" width="75" height="10" rx="2" fill="#fde68a" opacity="0.5"/>
  <!-- Header -->
  <rect x="216" y="16" width="120" height="16" rx="4" fill="#e2e8f0"/>
  <rect x="216" y="38" width="90" height="10" rx="3" fill="#64748b"/>
  <!-- Search & Filter bar -->
  <rect x="500" y="16" width="180" height="36" rx="8" fill="#1e293b" stroke="#334155" stroke-width="1"/>
  <rect x="516" y="28" width="100" height="10" rx="2" fill="#475569"/>
  <rect x="696" y="16" width="88" height="36" rx="8" fill="#f59e0b" opacity="0.8"/>
  <rect x="714" y="28" width="52" height="10" rx="2" fill="#451a03"/>
  <!-- Filter tags -->
  <rect x="216" y="60" width="70" height="24" rx="12" fill="#f59e0b" opacity="0.15" stroke="#f59e0b" stroke-width="1" stroke-opacity="0.3"/>
  <rect x="228" y="68" width="46" height="8" rx="2" fill="#fbbf24" opacity="0.8"/>
  <rect x="296" y="60" width="60" height="24" rx="12" fill="#1e293b" stroke="#334155" stroke-width="1"/>
  <rect x="308" y="68" width="36" height="8" rx="2" fill="#94a3b8"/>
  <rect x="366" y="60" width="75" height="24" rx="12" fill="#1e293b" stroke="#334155" stroke-width="1"/>
  <rect x="378" y="68" width="51" height="8" rx="2" fill="#94a3b8"/>
  <rect x="451" y="60" width="65" height="24" rx="12" fill="#1e293b" stroke="#334155" stroke-width="1"/>
  <rect x="463" y="68" width="41" height="8" rx="2" fill="#94a3b8"/>
  <!-- Table Header -->
  <rect x="216" y="96" width="568" height="36" rx="6" fill="#1e293b"/>
  <rect x="232" y="108" width="20" height="12" rx="2" fill="#334155"/>
  <rect x="264" y="110" width="60" height="8" rx="2" fill="#94a3b8"/>
  <rect x="370" y="110" width="50" height="8" rx="2" fill="#94a3b8"/>
  <rect x="470" y="110" width="60" height="8" rx="2" fill="#94a3b8"/>
  <rect x="570" y="110" width="40" height="8" rx="2" fill="#94a3b8"/>
  <rect x="660" y="110" width="50" height="8" rx="2" fill="#94a3b8"/>
  <rect x="740" y="110" width="30" height="8" rx="2" fill="#94a3b8"/>
  <!-- Table rows -->
  <!-- Row 1 -->
  <rect x="216" y="136" width="568" height="52" rx="0" fill="#0f172a"/>
  <rect x="216" y="188" width="568" height="1" fill="#1e293b"/>
  <circle cx="246" cy="162" r="16" fill="#f59e0b" opacity="0.2"/>
  <rect x="242" y="158" width="8" height="8" rx="4" fill="#fbbf24" opacity="0.7"/>
  <rect x="270" y="152" width="80" height="9" rx="2" fill="#e2e8f0" opacity="0.9"/>
  <rect x="270" y="166" width="60" height="7" rx="2" fill="#64748b"/>
  <rect x="370" y="156" width="70" height="8" rx="2" fill="#94a3b8"/>
  <rect x="470" y="156" width="60" height="8" rx="2" fill="#94a3b8"/>
  <rect x="560" y="152" width="55" height="20" rx="10" fill="#f59e0b" opacity="0.15"/>
  <rect x="570" y="158" width="35" height="8" rx="2" fill="#fbbf24"/>
  <rect x="660" y="156" width="50" height="8" rx="2" fill="#64748b"/>
  <rect x="740" y="154" width="24" height="12" rx="2" fill="#334155"/>
  <!-- Row 2 -->
  <rect x="216" y="189" width="568" height="52" rx="0" fill="#0f172a"/>
  <rect x="216" y="241" width="568" height="1" fill="#1e293b"/>
  <circle cx="246" cy="215" r="16" fill="#3b82f6" opacity="0.2"/>
  <rect x="242" y="211" width="8" height="8" rx="4" fill="#60a5fa" opacity="0.7"/>
  <rect x="270" y="205" width="90" height="9" rx="2" fill="#e2e8f0" opacity="0.9"/>
  <rect x="270" y="219" width="55" height="7" rx="2" fill="#64748b"/>
  <rect x="370" y="209" width="65" height="8" rx="2" fill="#94a3b8"/>
  <rect x="470" y="209" width="55" height="8" rx="2" fill="#94a3b8"/>
  <rect x="560" y="205" width="55" height="20" rx="10" fill="#10b981" opacity="0.15"/>
  <rect x="570" y="211" width="35" height="8" rx="2" fill="#6ee7b7"/>
  <rect x="660" y="209" width="40" height="8" rx="2" fill="#64748b"/>
  <rect x="740" y="207" width="24" height="12" rx="2" fill="#334155"/>
  <!-- Row 3 -->
  <rect x="216" y="242" width="568" height="52" rx="0" fill="#0f172a"/>
  <rect x="216" y="294" width="568" height="1" fill="#1e293b"/>
  <circle cx="246" cy="268" r="16" fill="#8b5cf6" opacity="0.2"/>
  <rect x="242" y="264" width="8" height="8" rx="4" fill="#a78bfa" opacity="0.7"/>
  <rect x="270" y="258" width="70" height="9" rx="2" fill="#e2e8f0" opacity="0.9"/>
  <rect x="270" y="272" width="65" height="7" rx="2" fill="#64748b"/>
  <rect x="370" y="262" width="75" height="8" rx="2" fill="#94a3b8"/>
  <rect x="470" y="262" width="50" height="8" rx="2" fill="#94a3b8"/>
  <rect x="560" y="258" width="55" height="20" rx="10" fill="#f59e0b" opacity="0.15"/>
  <rect x="570" y="264" width="35" height="8" rx="2" fill="#fbbf24"/>
  <rect x="660" y="262" width="55" height="8" rx="2" fill="#64748b"/>
  <rect x="740" y="260" width="24" height="12" rx="2" fill="#334155"/>
  <!-- Row 4 -->
  <rect x="216" y="295" width="568" height="52" rx="0" fill="#0f172a"/>
  <rect x="216" y="347" width="568" height="1" fill="#1e293b"/>
  <circle cx="246" cy="321" r="16" fill="#10b981" opacity="0.2"/>
  <rect x="242" y="317" width="8" height="8" rx="4" fill="#6ee7b7" opacity="0.7"/>
  <rect x="270" y="311" width="85" height="9" rx="2" fill="#e2e8f0" opacity="0.9"/>
  <rect x="270" y="325" width="50" height="7" rx="2" fill="#64748b"/>
  <rect x="370" y="315" width="60" height="8" rx="2" fill="#94a3b8"/>
  <rect x="470" y="315" width="65" height="8" rx="2" fill="#94a3b8"/>
  <rect x="560" y="311" width="55" height="20" rx="10" fill="#10b981" opacity="0.15"/>
  <rect x="570" y="317" width="35" height="8" rx="2" fill="#6ee7b7"/>
  <rect x="660" y="315" width="45" height="8" rx="2" fill="#64748b"/>
  <rect x="740" y="313" width="24" height="12" rx="2" fill="#334155"/>
  <!-- Row 5 -->
  <rect x="216" y="348" width="568" height="52" rx="0" fill="#0f172a"/>
  <rect x="216" y="400" width="568" height="1" fill="#1e293b"/>
  <circle cx="246" cy="374" r="16" fill="#f59e0b" opacity="0.2"/>
  <rect x="242" y="370" width="8" height="8" rx="4" fill="#fbbf24" opacity="0.7"/>
  <rect x="270" y="364" width="95" height="9" rx="2" fill="#e2e8f0" opacity="0.9"/>
  <rect x="270" y="378" width="45" height="7" rx="2" fill="#64748b"/>
  <rect x="370" y="368" width="55" height="8" rx="2" fill="#94a3b8"/>
  <rect x="470" y="368" width="70" height="8" rx="2" fill="#94a3b8"/>
  <rect x="560" y="364" width="55" height="20" rx="10" fill="#3b82f6" opacity="0.15"/>
  <rect x="570" y="370" width="35" height="8" rx="2" fill="#60a5fa"/>
  <rect x="660" y="368" width="50" height="8" rx="2" fill="#64748b"/>
  <rect x="740" y="366" width="24" height="12" rx="2" fill="#334155"/>
  <!-- Row 6 -->
  <rect x="216" y="401" width="568" height="52" rx="0" fill="#0f172a"/>
  <rect x="216" y="453" width="568" height="1" fill="#1e293b"/>
  <circle cx="246" cy="427" r="16" fill="#3b82f6" opacity="0.2"/>
  <rect x="242" y="423" width="8" height="8" rx="4" fill="#60a5fa" opacity="0.7"/>
  <rect x="270" y="417" width="75" height="9" rx="2" fill="#e2e8f0" opacity="0.9"/>
  <rect x="270" y="431" width="55" height="7" rx="2" fill="#64748b"/>
  <rect x="370" y="421" width="70" height="8" rx="2" fill="#94a3b8"/>
  <rect x="470" y="421" width="55" height="8" rx="2" fill="#94a3b8"/>
  <rect x="560" y="417" width="55" height="20" rx="10" fill="#f59e0b" opacity="0.15"/>
  <rect x="570" y="423" width="35" height="8" rx="2" fill="#fbbf24"/>
  <rect x="660" y="421" width="60" height="8" rx="2" fill="#64748b"/>
  <rect x="740" y="419" width="24" height="12" rx="2" fill="#334155"/>
  <!-- Pagination -->
  <rect x="216" y="470" width="568" height="40" rx="6" fill="#1e293b"/>
  <rect x="232" y="482" width="120" height="8" rx="2" fill="#64748b"/>
  <rect x="670" y="478" width="28" height="20" rx="4" fill="#f59e0b" opacity="0.2"/>
  <rect x="676" y="484" width="16" height="8" rx="2" fill="#fbbf24"/>
  <rect x="706" y="478" width="28" height="20" rx="4" fill="#1e293b" stroke="#334155" stroke-width="1"/>
  <rect x="712" y="484" width="16" height="8" rx="2" fill="#94a3b8"/>
  <rect x="742" y="478" width="28" height="20" rx="4" fill="#1e293b" stroke="#334155" stroke-width="1"/>
  <rect x="748" y="484" width="16" height="8" rx="2" fill="#94a3b8"/>
  <!-- Contact detail panel (bottom) -->
  <rect x="216" y="524" width="568" height="60" rx="10" fill="#1e293b"/>
  <circle cx="252" cy="554" r="20" fill="#f59e0b" opacity="0.15"/>
  <rect x="248" y="550" width="8" height="8" rx="4" fill="#fbbf24" opacity="0.6"/>
  <rect x="284" y="540" width="100" height="10" rx="2" fill="#e2e8f0" opacity="0.9"/>
  <rect x="284" y="556" width="70" height="8" rx="2" fill="#64748b"/>
  <rect x="284" y="570" width="90" height="6" rx="2" fill="#475569"/>
  <rect x="540" y="542" width="60" height="24" rx="6" fill="#f59e0b" opacity="0.15"/>
  <rect x="552" y="550" width="36" height="8" rx="2" fill="#fbbf24"/>
  <rect x="612" y="542" width="60" height="24" rx="6" fill="#1e293b" stroke="#334155" stroke-width="1"/>
  <rect x="624" y="550" width="36" height="8" rx="2" fill="#94a3b8"/>
  <rect x="684" y="542" width="60" height="24" rx="6" fill="#1e293b" stroke="#334155" stroke-width="1"/>
  <rect x="696" y="550" width="36" height="8" rx="2" fill="#94a3b8"/>
</svg>