<svg xmlns="http://www.w3.org/2000/svg" viewBox="0 0 800 600" fill="none">
  <rect width="800" height="600" rx="12" fill="#0f172a"/>
  <!-- Sidebar -->
  <rect width="200" height="600" rx="12" fill="url(#sideGrad)"/>
  <defs>
    <linearGradient id="sideGrad" x1="0" y1="0" x2="0" y2="600" gradientUnits="userSpaceOnUse">
      <stop offset="0%" stop-color="#78350f"/>
      <stop offset="100%" stop-color="#451a03"/>
    </linearGradient>
  </defs>
  <!-- Logo area -->
  <rect x="20" y="20" width="40" height="40" rx="10" fill="#f59e0b" opacity="0.3"/>
  <rect x="68" y="28" width="100" height="12" rx="3" fill="#fef3c7" opacity="0.8"/>
  <rect x="68" y="44" width="60" height="8" rx="2" fill="#fde68a" opacity="0.4"/>
  <!-- Sidebar items -->
  <rect x="12" y="80" width="176" height="36" rx="8" fill="#f59e0b" opacity="0.2"/>
  <rect x="28" y="92" width="80" height="10" rx="2" fill="#fef3c7"/>
  <rect x="28" y="130" width="70" height="10" rx="2" fill="#fde68a" opacity="0.5"/>
  <rect x="28" y="158" width="90" height="10" rx="2" fill="#fde68a" opacity="0.5"/>
  <rect x="28" y="186" width="60" height="10" rx="2" fill="#fde68a" opacity="0.5"/>
  <rect x="28" y="214" width="80" height="10" rx="2" fill="#fde68a" opacity="0.5"/>
  <rect x="28" y="242" width="75" height="10" rx="2" fill="#fde68a" opacity="0.5"/>
  <rect x="28" y="270" width="85" height="10" rx="2" fill="#fde68a" opacity="0.5"/>
  <rect x="28" y="298" width="65" height="10" rx="2" fill="#fde68a" opacity="0.5"/>
  <!-- Header -->
  <rect x="216" y="16" width="200" height="16" rx="4" fill="#e2e8f0"/>
  <rect x="216" y="38" width="140" height="10" rx="3" fill="#64748b"/>
  <!-- KPI Cards Row -->
  <rect x="216" y="64" width="136" height="90" rx="10" fill="#78350f" opacity="0.25"/>
  <rect x="232" y="80" width="60" height="8" rx="2" fill="#94a3b8"/>
  <rect x="232" y="96" width="80" height="18" rx="3" fill="#f59e0b"/>
  <rect x="232" y="122" width="50" height="8" rx="2" fill="#fbbf24" opacity="0.6"/>
  <rect x="362" y="64" width="136" height="90" rx="10" fill="#1e3a5f" opacity="0.25"/>
  <rect x="378" y="80" width="70" height="8" rx="2" fill="#94a3b8"/>
  <rect x="378" y="96" width="60" height="18" rx="3" fill="#3b82f6"/>
  <rect x="378" y="122" width="40" height="8" rx="2" fill="#60a5fa" opacity="0.6"/>
  <rect x="508" y="64" width="136" height="90" rx="10" fill="#064e3b" opacity="0.25"/>
  <rect x="524" y="80" width="65" height="8" rx="2" fill="#94a3b8"/>
  <rect x="524" y="96" width="70" height="18" rx="3" fill="#10b981"/>
  <rect x="524" y="122" width="45" height="8" rx="2" fill="#6ee7b7" opacity="0.6"/>
  <rect x="654" y="64" width="130" height="90" rx="10" fill="#4c1d95" opacity="0.2"/>
  <rect x="670" y="80" width="55" height="8" rx="2" fill="#94a3b8"/>
  <rect x="670" y="96" width="75" height="18" rx="3" fill="#8b5cf6"/>
  <rect x="670" y="122" width="50" height="8" rx="2" fill="#a78bfa" opacity="0.6"/>
  <!-- Sales Pipeline Chart -->
  <rect x="216" y="170" width="380" height="200" rx="10" fill="#1e293b"/>
  <rect x="232" y="186" width="120" height="12" rx="3" fill="#e2e8f0"/>
  <rect x="232" y="204" width="80" height="8" rx="2" fill="#64748b"/>
  <!-- Funnel bars -->
  <rect x="250" y="228" width="320" height="24" rx="4" fill="#f59e0b" opacity="0.8"/>
  <rect x="250" y="260" width="260" height="24" rx="4" fill="#f59e0b" opacity="0.65"/>
  <rect x="250" y="292" width="180" height="24" rx="4" fill="#f59e0b" opacity="0.5"/>
  <rect x="250" y="324" width="120" height="24" rx="4" fill="#10b981" opacity="0.7"/>
  <!-- Recent Deals -->
  <rect x="608" y="170" width="176" height="200" rx="10" fill="#1e293b"/>
  <rect x="624" y="186" width="100" height="12" rx="3" fill="#e2e8f0"/>
  <rect x="624" y="210" width="144" height="30" rx="4" fill="#0f172a"/>
  <rect x="632" y="218" width="80" height="8" rx="2" fill="#fbbf24" opacity="0.7"/>
  <rect x="632" y="230" width="50" height="6" rx="2" fill="#64748b"/>
  <rect x="624" y="248" width="144" height="30" rx="4" fill="#0f172a"/>
  <rect x="632" y="256" width="90" height="8" rx="2" fill="#fbbf24" opacity="0.7"/>
  <rect x="632" y="268" width="60" height="6" rx="2" fill="#64748b"/>
  <rect x="624" y="286" width="144" height="30" rx="4" fill="#0f172a"/>
  <rect x="632" y="294" width="70" height="8" rx="2" fill="#fbbf24" opacity="0.7"/>
  <rect x="632" y="306" width="55" height="6" rx="2" fill="#64748b"/>
  <rect x="624" y="324" width="144" height="30" rx="4" fill="#0f172a"/>
  <rect x="632" y="332" width="85" height="8" rx="2" fill="#fbbf24" opacity="0.7"/>
  <rect x="632" y="344" width="45" height="6" rx="2" fill="#64748b"/>
  <!-- Activities Section -->
  <rect x="216" y="386" width="280" height="196" rx="10" fill="#1e293b"/>
  <rect x="232" y="402" width="120" height="12" rx="3" fill="#e2e8f0"/>
  <rect x="232" y="426" width="248" height="1" fill="#334155"/>
  <!-- Activity items -->
  <rect x="240" y="436" width="24" height="24" rx="12" fill="#f59e0b" opacity="0.2"/>
  <rect x="272" y="440" width="120" height="8" rx="2" fill="#e2e8f0" opacity="0.8"/>
  <rect x="272" y="452" width="80" height="6" rx="2" fill="#64748b"/>
  <rect x="240" y="470" width="24" height="24" rx="12" fill="#3b82f6" opacity="0.2"/>
  <rect x="272" y="474" width="140" height="8" rx="2" fill="#e2e8f0" opacity="0.8"/>
  <rect x="272" y="486" width="90" height="6" rx="2" fill="#64748b"/>
  <rect x="240" y="504" width="24" height="24" rx="12" fill="#10b981" opacity="0.2"/>
  <rect x="272" y="508" width="110" height="8" rx="2" fill="#e2e8f0" opacity="0.8"/>
  <rect x="272" y="520" width="70" height="6" rx="2" fill="#64748b"/>
  <rect x="240" y="538" width="24" height="24" rx="12" fill="#8b5cf6" opacity="0.2"/>
  <rect x="272" y="542" width="130" height="8" rx="2" fill="#e2e8f0" opacity="0.8"/>
  <rect x="272" y="554" width="85" height="6" rx="2" fill="#64748b"/>
  <!-- Team Performance -->
  <rect x="508" y="386" width="276" height="196" rx="10" fill="#1e293b"/>
  <rect x="524" y="402" width="140" height="12" rx="3" fill="#e2e8f0"/>
  <rect x="524" y="426" width="244" height="1" fill="#334155"/>
  <!-- Team bars -->
  <rect x="532" y="438" width="60" height="8" rx="2" fill="#94a3b8"/>
  <rect x="600" y="436" width="160" height="12" rx="3" fill="#f59e0b" opacity="0.8"/>
  <rect x="532" y="462" width="50" height="8" rx="2" fill="#94a3b8"/>
  <rect x="600" y="460" width="130" height="12" rx="3" fill="#f59e0b" opacity="0.65"/>
  <rect x="532" y="486" width="55" height="8" rx="2" fill="#94a3b8"/>
  <rect x="600" y="484" width="100" height="12" rx="3" fill="#f59e0b" opacity="0.5"/>
  <rect x="532" y="510" width="45" height="8" rx="2" fill="#94a3b8"/>
  <rect x="600" y="508" width="80" height="12" rx="3" fill="#f59e0b" opacity="0.4"/>
  <rect x="532" y="534" width="65" height="8" rx="2" fill="#94a3b8"/>
  <rect x="600" y="532" width="60" height="12" rx="3" fill="#f59e0b" opacity="0.3"/>
</svg>