<svg xmlns="http://www.w3.org/2000/svg" viewBox="0 0 800 500" fill="none">
  <rect width="800" height="500" rx="12" fill="#0f172a"/>
  <!-- Header bar -->
  <rect y="0" width="800" height="48" rx="12" fill="#065f46"/>
  <rect x="20" y="14" width="120" height="20" rx="4" fill="#10b981" opacity="0.3"/>
  <rect x="160" y="12" width="260" height="24" rx="6" fill="#1e293b"/>
  <rect x="640" y="14" width="60" height="20" rx="4" fill="#10b981" opacity="0.2"/>
  <rect x="710" y="14" width="60" height="20" rx="4" fill="#10b981" opacity="0.2"/>
  <!-- Category tabs -->
  <rect x="16" y="60" width="50" height="28" rx="6" fill="#10b981"/>
  <rect x="74" y="60" width="70" height="28" rx="6" fill="#1e293b"/>
  <rect x="152" y="60" width="50" height="28" rx="6" fill="#1e293b"/>
  <rect x="210" y="60" width="60" height="28" rx="6" fill="#1e293b"/>
  <!-- Product grid -->
  <rect x="16" y="100" width="115" height="100" rx="8" fill="#1e293b"/>
  <rect x="30" y="112" width="86" height="50" rx="4" fill="#065f46" opacity="0.3"/>
  <rect x="30" y="172" width="60" height="10" rx="2" fill="#94a3b8"/>
  <rect x="30" y="186" width="40" height="10" rx="2" fill="#10b981"/>
  <rect x="141" y="100" width="115" height="100" rx="8" fill="#1e293b"/>
  <rect x="155" y="112" width="86" height="50" rx="4" fill="#065f46" opacity="0.3"/>
  <rect x="155" y="172" width="60" height="10" rx="2" fill="#94a3b8"/>
  <rect x="155" y="186" width="40" height="10" rx="2" fill="#10b981"/>
  <rect x="266" y="100" width="115" height="100" rx="8" fill="#1e293b"/>
  <rect x="280" y="112" width="86" height="50" rx="4" fill="#065f46" opacity="0.3"/>
  <rect x="280" y="172" width="60" height="10" rx="2" fill="#94a3b8"/>
  <rect x="280" y="186" width="40" height="10" rx="2" fill="#10b981"/>
  <rect x="391" y="100" width="115" height="100" rx="8" fill="#1e293b"/>
  <rect x="405" y="112" width="86" height="50" rx="4" fill="#065f46" opacity="0.3"/>
  <rect x="405" y="172" width="60" height="10" rx="2" fill="#94a3b8"/>
  <rect x="405" y="186" width="40" height="10" rx="2" fill="#10b981"/>
  <!-- More products row 2 -->
  <rect x="16" y="212" width="115" height="100" rx="8" fill="#1e293b"/>
  <rect x="141" y="212" width="115" height="100" rx="8" fill="#1e293b"/>
  <rect x="266" y="212" width="115" height="100" rx="8" fill="#1e293b"/>
  <rect x="391" y="212" width="115" height="100" rx="8" fill="#1e293b"/>
  <!-- Cart panel -->
  <rect x="520" y="52" width="268" height="440" rx="8" fill="#1e293b"/>
  <rect x="536" y="68" width="80" height="14" rx="3" fill="#e2e8f0"/>
  <!-- Cart items -->
  <rect x="536" y="96" width="236" height="40" rx="4" fill="#0f172a"/>
  <rect x="548" y="106" width="100" height="10" rx="2" fill="#94a3b8"/>
  <rect x="548" y="120" width="40" height="8" rx="2" fill="#64748b"/>
  <rect x="736" y="110" width="30" height="10" rx="2" fill="#10b981"/>
  <rect x="536" y="144" width="236" height="40" rx="4" fill="#0f172a"/>
  <rect x="548" y="154" width="80" height="10" rx="2" fill="#94a3b8"/>
  <rect x="548" y="168" width="40" height="8" rx="2" fill="#64748b"/>
  <rect x="736" y="158" width="30" height="10" rx="2" fill="#10b981"/>
  <rect x="536" y="192" width="236" height="40" rx="4" fill="#0f172a"/>
  <rect x="548" y="202" width="110" height="10" rx="2" fill="#94a3b8"/>
  <rect x="548" y="216" width="40" height="8" rx="2" fill="#64748b"/>
  <rect x="736" y="206" width="30" height="10" rx="2" fill="#10b981"/>
  <!-- Totals -->
  <rect x="536" y="260" width="236" height="1" fill="#334155"/>
  <rect x="536" y="272" width="60" height="10" rx="2" fill="#94a3b8"/>
  <rect x="726" y="272" width="46" height="10" rx="2" fill="#94a3b8"/>
  <rect x="536" y="290" width="50" height="10" rx="2" fill="#94a3b8"/>
  <rect x="736" y="290" width="36" height="10" rx="2" fill="#94a3b8"/>
  <rect x="536" y="314" width="236" height="1" fill="#334155"/>
  <rect x="536" y="326" width="50" height="14" rx="3" fill="#e2e8f0"/>
  <rect x="710" y="326" width="60" height="14" rx="3" fill="#10b981"/>
  <!-- Payment buttons -->
  <rect x="536" y="360" width="112" height="40" rx="8" fill="#10b981"/>
  <rect x="660" y="360" width="112" height="40" rx="8" fill="#0ea5e9"/>
  <rect x="536" y="408" width="112" height="40" rx="8" fill="#8b5cf6"/>
  <rect x="660" y="408" width="112" height="40" rx="8" fill="#f59e0b"/>
  <!-- Payment button labels -->
  <text x="568" y="385" fill="white" font-size="12" font-family="sans-serif" font-weight="600">CASH</text>
  <text x="695" y="385" fill="white" font-size="12" font-family="sans-serif" font-weight="600">CARD</text>
  <text x="554" y="433" fill="white" font-size="12" font-family="sans-serif" font-weight="600">PromptPay</text>
  <text x="684" y="433" fill="white" font-size="12" font-family="sans-serif" font-weight="600">Transfer</text>
</svg>
