<svg xmlns="http://www.w3.org/2000/svg" viewBox="0 0 800 600" fill="none">
  <rect width="800" height="600" rx="12" fill="#0f172a"/>
  <!-- Sidebar -->
  <rect width="200" height="600" rx="12" fill="url(#sideGrad3)"/>
  <defs>
    <linearGradient id="sideGrad3" x1="0" y1="0" x2="0" y2="600" gradientUnits="userSpaceOnUse">
      <stop offset="0%" stop-color="#134e4a"/>
      <stop offset="100%" stop-color="#042f2e"/>
    </linearGradient>
  </defs>
  <!-- Logo -->
  <rect x="20" y="20" width="40" height="40" rx="10" fill="#14b8a6" opacity="0.3"/>
  <rect x="68" y="28" width="100" height="12" rx="3" fill="#ccfbf1" opacity="0.8"/>
  <rect x="68" y="44" width="60" height="8" rx="2" fill="#99f6e4" opacity="0.4"/>
  <!-- Sidebar items -->
  <rect x="28" y="92" width="80" height="10" rx="2" fill="#99f6e4" opacity="0.5"/>
  <rect x="28" y="120" width="70" height="10" rx="2" fill="#99f6e4" opacity="0.5"/>
  <rect x="28" y="148" width="90" height="10" rx="2" fill="#99f6e4" opacity="0.5"/>
  <rect x="12" y="171" width="176" height="36" rx="8" fill="#14b8a6" opacity="0.2"/>
  <rect x="28" y="183" width="60" height="10" rx="2" fill="#ccfbf1"/>
  <rect x="28" y="220" width="80" height="10" rx="2" fill="#99f6e4" opacity="0.5"/>
  <rect x="28" y="248" width="75" height="10" rx="2" fill="#99f6e4" opacity="0.5"/>
  <!-- Header -->
  <rect x="216" y="16" width="160" height="16" rx="4" fill="#e2e8f0"/>
  <rect x="216" y="38" width="100" height="10" rx="3" fill="#64748b"/>
  <!-- Search & Filter bar -->
  <rect x="500" y="16" width="180" height="36" rx="8" fill="#1e293b" stroke="#334155" stroke-width="1"/>
  <rect x="516" y="28" width="100" height="10" rx="2" fill="#475569"/>
  <rect x="696" y="16" width="88" height="36" rx="8" fill="#14b8a6" opacity="0.8"/>
  <rect x="714" y="28" width="52" height="10" rx="2" fill="#042f2e"/>
  <!-- Filter tags -->
  <rect x="216" y="60" width="70" height="24" rx="12" fill="#14b8a6" opacity="0.15" stroke="#14b8a6" stroke-width="1" stroke-opacity="0.3"/>
  <rect x="228" y="68" width="46" height="8" rx="2" fill="#2dd4bf" opacity="0.8"/>
  <rect x="296" y="60" width="60" height="24" rx="12" fill="#1e293b" stroke="#334155" stroke-width="1"/>
  <rect x="308" y="68" width="36" height="8" rx="2" fill="#94a3b8"/>
  <rect x="366" y="60" width="75" height="24" rx="12" fill="#1e293b" stroke="#334155" stroke-width="1"/>
  <rect x="378" y="68" width="51" height="8" rx="2" fill="#94a3b8"/>
  <rect x="451" y="60" width="65" height="24" rx="12" fill="#1e293b" stroke="#334155" stroke-width="1"/>
  <rect x="463" y="68" width="41" height="8" rx="2" fill="#94a3b8"/>
  <!-- Shipment Cards with Timeline -->
  <!-- Card 1 -->
  <rect x="216" y="96" width="568" height="110" rx="10" fill="#1e293b"/>
  <rect x="232" y="110" width="120" height="10" rx="2" fill="#e2e8f0" opacity="0.9"/>
  <rect x="232" y="126" width="80" height="7" rx="2" fill="#64748b"/>
  <!-- Status badge -->
  <rect x="680" y="108" width="80" height="22" rx="11" fill="#14b8a6" opacity="0.15"/>
  <rect x="694" y="115" width="52" height="8" rx="2" fill="#2dd4bf"/>
  <!-- Timeline -->
  <circle cx="260" cy="160" r="8" fill="#14b8a6"/>
  <line x1="268" y1="160" x2="360" y2="160" stroke="#14b8a6" stroke-width="2"/>
  <circle cx="368" cy="160" r="8" fill="#14b8a6"/>
  <line x1="376" y1="160" x2="468" y2="160" stroke="#14b8a6" stroke-width="2"/>
  <circle cx="476" cy="160" r="8" fill="#14b8a6"/>
  <line x1="484" y1="160" x2="576" y2="160" stroke="#14b8a6" stroke-width="2" opacity="0.5"/>
  <circle cx="584" cy="160" r="8" fill="#14b8a6" opacity="0.3"/>
  <line x1="592" y1="160" x2="684" y2="160" stroke="#334155" stroke-width="2"/>
  <circle cx="692" cy="160" r="8" fill="#334155"/>
  <!-- Timeline labels -->
  <rect x="242" y="176" width="36" height="6" rx="2" fill="#2dd4bf" opacity="0.7"/>
  <rect x="350" y="176" width="36" height="6" rx="2" fill="#2dd4bf" opacity="0.7"/>
  <rect x="458" y="176" width="36" height="6" rx="2" fill="#2dd4bf" opacity="0.7"/>
  <rect x="566" y="176" width="36" height="6" rx="2" fill="#94a3b8" opacity="0.5"/>
  <rect x="674" y="176" width="36" height="6" rx="2" fill="#94a3b8" opacity="0.3"/>
  <!-- Card 2 -->
  <rect x="216" y="218" width="568" height="110" rx="10" fill="#1e293b"/>
  <rect x="232" y="232" width="100" height="10" rx="2" fill="#e2e8f0" opacity="0.9"/>
  <rect x="232" y="248" width="90" height="7" rx="2" fill="#64748b"/>
  <!-- Status badge -->
  <rect x="680" y="230" width="80" height="22" rx="11" fill="#3b82f6" opacity="0.15"/>
  <rect x="694" y="237" width="52" height="8" rx="2" fill="#60a5fa"/>
  <!-- Timeline -->
  <circle cx="260" cy="282" r="8" fill="#14b8a6"/>
  <line x1="268" y1="282" x2="360" y2="282" stroke="#14b8a6" stroke-width="2"/>
  <circle cx="368" cy="282" r="8" fill="#14b8a6"/>
  <line x1="376" y1="282" x2="468" y2="282" stroke="#334155" stroke-width="2"/>
  <circle cx="476" cy="282" r="8" fill="#334155"/>
  <line x1="484" y1="282" x2="576" y2="282" stroke="#334155" stroke-width="2"/>
  <circle cx="584" cy="282" r="8" fill="#334155"/>
  <line x1="592" y1="282" x2="684" y2="282" stroke="#334155" stroke-width="2"/>
  <circle cx="692" cy="282" r="8" fill="#334155"/>
  <!-- Timeline labels -->
  <rect x="242" y="298" width="36" height="6" rx="2" fill="#2dd4bf" opacity="0.7"/>
  <rect x="350" y="298" width="36" height="6" rx="2" fill="#2dd4bf" opacity="0.7"/>
  <rect x="458" y="298" width="36" height="6" rx="2" fill="#94a3b8" opacity="0.3"/>
  <rect x="566" y="298" width="36" height="6" rx="2" fill="#94a3b8" opacity="0.3"/>
  <rect x="674" y="298" width="36" height="6" rx="2" fill="#94a3b8" opacity="0.3"/>
  <!-- Card 3 -->
  <rect x="216" y="340" width="568" height="110" rx="10" fill="#1e293b"/>
  <rect x="232" y="354" width="110" height="10" rx="2" fill="#e2e8f0" opacity="0.9"/>
  <rect x="232" y="370" width="75" height="7" rx="2" fill="#64748b"/>
  <!-- Status badge -->
  <rect x="680" y="352" width="80" height="22" rx="11" fill="#10b981" opacity="0.15"/>
  <rect x="694" y="359" width="52" height="8" rx="2" fill="#6ee7b7"/>
  <!-- Timeline (all complete) -->
  <circle cx="260" cy="404" r="8" fill="#10b981"/>
  <line x1="268" y1="404" x2="360" y2="404" stroke="#10b981" stroke-width="2"/>
  <circle cx="368" cy="404" r="8" fill="#10b981"/>
  <line x1="376" y1="404" x2="468" y2="404" stroke="#10b981" stroke-width="2"/>
  <circle cx="476" cy="404" r="8" fill="#10b981"/>
  <line x1="484" y1="404" x2="576" y2="404" stroke="#10b981" stroke-width="2"/>
  <circle cx="584" cy="404" r="8" fill="#10b981"/>
  <line x1="592" y1="404" x2="684" y2="404" stroke="#10b981" stroke-width="2"/>
  <circle cx="692" cy="404" r="8" fill="#10b981"/>
  <!-- Timeline labels -->
  <rect x="242" y="420" width="36" height="6" rx="2" fill="#6ee7b7" opacity="0.7"/>
  <rect x="350" y="420" width="36" height="6" rx="2" fill="#6ee7b7" opacity="0.7"/>
  <rect x="458" y="420" width="36" height="6" rx="2" fill="#6ee7b7" opacity="0.7"/>
  <rect x="566" y="420" width="36" height="6" rx="2" fill="#6ee7b7" opacity="0.7"/>
  <rect x="674" y="420" width="36" height="6" rx="2" fill="#6ee7b7" opacity="0.7"/>
  <!-- Summary Section -->
  <rect x="216" y="466" width="280" height="116" rx="10" fill="#1e293b"/>
  <rect x="232" y="480" width="120" height="12" rx="3" fill="#e2e8f0"/>
  <rect x="232" y="504" width="248" height="1" fill="#334155"/>
  <!-- Stats -->
  <rect x="240" y="516" width="60" height="8" rx="2" fill="#94a3b8"/>
  <rect x="310" y="514" width="40" height="12" rx="2" fill="#14b8a6"/>
  <rect x="240" y="540" width="55" height="8" rx="2" fill="#94a3b8"/>
  <rect x="310" y="538" width="50" height="12" rx="2" fill="#10b981"/>
  <rect x="240" y="564" width="70" height="8" rx="2" fill="#94a3b8"/>
  <rect x="310" y="562" width="35" height="12" rx="2" fill="#3b82f6"/>
  <!-- Pagination -->
  <rect x="508" y="466" width="276" height="116" rx="10" fill="#1e293b"/>
  <rect x="524" y="480" width="100" height="12" rx="3" fill="#e2e8f0"/>
  <rect x="524" y="504" width="244" height="1" fill="#334155"/>
  <!-- Delivery rating -->
  <rect x="532" y="518" width="80" height="8" rx="2" fill="#94a3b8"/>
  <circle cx="640" cy="522" r="6" fill="#14b8a6" opacity="0.3"/>
  <circle cx="640" cy="522" r="3" fill="#14b8a6"/>
  <circle cx="660" cy="522" r="6" fill="#14b8a6" opacity="0.3"/>
  <circle cx="660" cy="522" r="3" fill="#14b8a6"/>
  <circle cx="680" cy="522" r="6" fill="#14b8a6" opacity="0.3"/>
  <circle cx="680" cy="522" r="3" fill="#14b8a6"/>
  <circle cx="700" cy="522" r="6" fill="#14b8a6" opacity="0.3"/>
  <circle cx="700" cy="522" r="3" fill="#14b8a6"/>
  <circle cx="720" cy="522" r="6" fill="#334155" opacity="0.3"/>
  <circle cx="720" cy="522" r="3" fill="#334155"/>
  <rect x="532" y="542" width="70" height="8" rx="2" fill="#94a3b8"/>
  <rect x="630" y="540" width="60" height="12" rx="2" fill="#14b8a6" opacity="0.3"/>
  <rect x="636" y="543" width="48" height="6" rx="2" fill="#2dd4bf"/>
  <rect x="532" y="564" width="90" height="8" rx="2" fill="#94a3b8"/>
  <rect x="630" y="562" width="70" height="12" rx="2" fill="#10b981" opacity="0.3"/>
  <rect x="636" y="565" width="58" height="6" rx="2" fill="#6ee7b7"/>
</svg>