<svg xmlns="http://www.w3.org/2000/svg" viewBox="0 0 800 600" fill="none">
  <rect width="800" height="600" rx="12" fill="#0f172a"/>
  <!-- Sidebar -->
  <rect width="200" height="600" rx="12" fill="url(#sideGrad2)"/>
  <defs>
    <linearGradient id="sideGrad2" x1="0" y1="0" x2="0" y2="600" gradientUnits="userSpaceOnUse">
      <stop offset="0%" stop-color="#134e4a"/>
      <stop offset="100%" stop-color="#042f2e"/>
    </linearGradient>
  </defs>
  <!-- Logo -->
  <rect x="20" y="20" width="40" height="40" rx="10" fill="#14b8a6" opacity="0.3"/>
  <rect x="68" y="28" width="100" height="12" rx="3" fill="#ccfbf1" opacity="0.8"/>
  <rect x="68" y="44" width="60" height="8" rx="2" fill="#99f6e4" opacity="0.4"/>
  <!-- Sidebar items -->
  <rect x="28" y="92" width="80" height="10" rx="2" fill="#99f6e4" opacity="0.5"/>
  <rect x="28" y="120" width="70" height="10" rx="2" fill="#99f6e4" opacity="0.5"/>
  <rect x="12" y="143" width="176" height="36" rx="8" fill="#14b8a6" opacity="0.2"/>
  <rect x="28" y="155" width="90" height="10" rx="2" fill="#ccfbf1"/>
  <rect x="28" y="192" width="60" height="10" rx="2" fill="#99f6e4" opacity="0.5"/>
  <rect x="28" y="220" width="80" height="10" rx="2" fill="#99f6e4" opacity="0.5"/>
  <rect x="28" y="248" width="75" height="10" rx="2" fill="#99f6e4" opacity="0.5"/>
  <!-- Header -->
  <rect x="216" y="16" width="160" height="16" rx="4" fill="#e2e8f0"/>
  <rect x="216" y="38" width="100" height="10" rx="3" fill="#64748b"/>
  <!-- Route summary bar -->
  <rect x="520" y="16" width="264" height="36" rx="8" fill="#1e293b"/>
  <rect x="532" y="24" width="50" height="8" rx="2" fill="#94a3b8"/>
  <rect x="532" y="36" width="30" height="8" rx="2" fill="#14b8a6"/>
  <rect x="600" y="24" width="50" height="8" rx="2" fill="#94a3b8"/>
  <rect x="600" y="36" width="40" height="8" rx="2" fill="#3b82f6"/>
  <rect x="668" y="24" width="50" height="8" rx="2" fill="#94a3b8"/>
  <rect x="668" y="36" width="60" height="8" rx="2" fill="#10b981"/>
  <!-- Map-like area -->
  <rect x="216" y="64" width="380" height="320" rx="10" fill="#1e293b"/>
  <rect x="232" y="76" width="100" height="12" rx="3" fill="#e2e8f0"/>
  <rect x="232" y="94" width="60" height="8" rx="2" fill="#64748b"/>
  <!-- Map grid lines -->
  <line x1="240" y1="120" x2="580" y2="120" stroke="#334155" stroke-width="0.5"/>
  <line x1="240" y1="160" x2="580" y2="160" stroke="#334155" stroke-width="0.5"/>
  <line x1="240" y1="200" x2="580" y2="200" stroke="#334155" stroke-width="0.5"/>
  <line x1="240" y1="240" x2="580" y2="240" stroke="#334155" stroke-width="0.5"/>
  <line x1="240" y1="280" x2="580" y2="280" stroke="#334155" stroke-width="0.5"/>
  <line x1="240" y1="320" x2="580" y2="320" stroke="#334155" stroke-width="0.5"/>
  <line x1="240" y1="360" x2="580" y2="360" stroke="#334155" stroke-width="0.5"/>
  <line x1="300" y1="110" x2="300" y2="370" stroke="#334155" stroke-width="0.5"/>
  <line x1="370" y1="110" x2="370" y2="370" stroke="#334155" stroke-width="0.5"/>
  <line x1="440" y1="110" x2="440" y2="370" stroke="#334155" stroke-width="0.5"/>
  <line x1="510" y1="110" x2="510" y2="370" stroke="#334155" stroke-width="0.5"/>
  <!-- Route paths -->
  <polyline points="270,340 320,280 400,250 460,180 530,150" stroke="#14b8a6" stroke-width="3" fill="none" stroke-linecap="round" stroke-linejoin="round" stroke-dasharray="8,4"/>
  <polyline points="280,200 350,220 420,300 500,320 560,280" stroke="#2dd4bf" stroke-width="2.5" fill="none" stroke-linecap="round" stroke-linejoin="round"/>
  <polyline points="260,150 330,170 380,140 450,160 520,210 560,190" stroke="#0891b2" stroke-width="2" fill="none" stroke-linecap="round" stroke-linejoin="round" opacity="0.7"/>
  <!-- Origin/destination markers -->
  <circle cx="270" cy="340" r="8" fill="#14b8a6" opacity="0.3"/>
  <circle cx="270" cy="340" r="4" fill="#14b8a6"/>
  <circle cx="530" cy="150" r="8" fill="#f43f5e" opacity="0.3"/>
  <circle cx="530" cy="150" r="4" fill="#f43f5e"/>
  <circle cx="280" cy="200" r="8" fill="#2dd4bf" opacity="0.3"/>
  <circle cx="280" cy="200" r="4" fill="#2dd4bf"/>
  <circle cx="560" cy="280" r="8" fill="#f43f5e" opacity="0.3"/>
  <circle cx="560" cy="280" r="4" fill="#f43f5e"/>
  <circle cx="260" cy="150" r="8" fill="#0891b2" opacity="0.3"/>
  <circle cx="260" cy="150" r="4" fill="#0891b2"/>
  <circle cx="560" cy="190" r="8" fill="#f43f5e" opacity="0.3"/>
  <circle cx="560" cy="190" r="4" fill="#f43f5e"/>
  <!-- Waypoint dots -->
  <circle cx="320" cy="280" r="3" fill="#14b8a6" opacity="0.6"/>
  <circle cx="400" cy="250" r="3" fill="#14b8a6" opacity="0.6"/>
  <circle cx="460" cy="180" r="3" fill="#14b8a6" opacity="0.6"/>
  <!-- Route List panel -->
  <rect x="608" y="64" width="176" height="320" rx="10" fill="#1e293b"/>
  <rect x="624" y="80" width="90" height="12" rx="3" fill="#e2e8f0"/>
  <!-- Route cards -->
  <rect x="616" y="104" width="160" height="64" rx="6" fill="#0f172a" stroke="#334155" stroke-width="1"/>
  <rect x="626" y="114" width="90" height="8" rx="2" fill="#e2e8f0" opacity="0.8"/>
  <rect x="626" y="128" width="60" height="6" rx="2" fill="#64748b"/>
  <rect x="626" y="142" width="50" height="14" rx="3" fill="#14b8a6" opacity="0.2"/>
  <rect x="632" y="146" width="38" height="6" rx="2" fill="#2dd4bf"/>
  <rect x="616" y="176" width="160" height="64" rx="6" fill="#0f172a" stroke="#334155" stroke-width="1"/>
  <rect x="626" y="186" width="80" height="8" rx="2" fill="#e2e8f0" opacity="0.8"/>
  <rect x="626" y="200" width="70" height="6" rx="2" fill="#64748b"/>
  <rect x="626" y="214" width="50" height="14" rx="3" fill="#14b8a6" opacity="0.2"/>
  <rect x="632" y="218" width="38" height="6" rx="2" fill="#2dd4bf"/>
  <rect x="616" y="248" width="160" height="64" rx="6" fill="#0f172a" stroke="#334155" stroke-width="1"/>
  <rect x="626" y="258" width="100" height="8" rx="2" fill="#e2e8f0" opacity="0.8"/>
  <rect x="626" y="272" width="55" height="6" rx="2" fill="#64748b"/>
  <rect x="626" y="286" width="50" height="14" rx="3" fill="#0891b2" opacity="0.2"/>
  <rect x="632" y="290" width="38" height="6" rx="2" fill="#22d3ee"/>
  <rect x="616" y="320" width="160" height="52" rx="6" fill="#0f172a" stroke="#334155" stroke-width="1"/>
  <rect x="626" y="330" width="85" height="8" rx="2" fill="#e2e8f0" opacity="0.8"/>
  <rect x="626" y="344" width="65" height="6" rx="2" fill="#64748b"/>
  <!-- Route Details Section -->
  <rect x="216" y="400" width="568" height="182" rx="10" fill="#1e293b"/>
  <rect x="232" y="416" width="120" height="12" rx="3" fill="#e2e8f0"/>
  <rect x="232" y="440" width="536" height="1" fill="#334155"/>
  <!-- Route detail table header -->
  <rect x="240" y="452" width="60" height="8" rx="2" fill="#94a3b8"/>
  <rect x="350" y="452" width="60" height="8" rx="2" fill="#94a3b8"/>
  <rect x="460" y="452" width="60" height="8" rx="2" fill="#94a3b8"/>
  <rect x="570" y="452" width="50" height="8" rx="2" fill="#94a3b8"/>
  <rect x="680" y="452" width="50" height="8" rx="2" fill="#94a3b8"/>
  <!-- Row 1 -->
  <rect x="240" y="472" width="80" height="8" rx="2" fill="#e2e8f0" opacity="0.8"/>
  <rect x="350" y="472" width="70" height="8" rx="2" fill="#94a3b8"/>
  <rect x="460" y="472" width="50" height="8" rx="2" fill="#94a3b8"/>
  <rect x="560" y="468" width="55" height="20" rx="10" fill="#14b8a6" opacity="0.15"/>
  <rect x="570" y="474" width="35" height="8" rx="2" fill="#2dd4bf"/>
  <rect x="680" y="472" width="40" height="8" rx="2" fill="#64748b"/>
  <!-- Row 2 -->
  <rect x="240" y="500" width="90" height="8" rx="2" fill="#e2e8f0" opacity="0.8"/>
  <rect x="350" y="500" width="60" height="8" rx="2" fill="#94a3b8"/>
  <rect x="460" y="500" width="55" height="8" rx="2" fill="#94a3b8"/>
  <rect x="560" y="496" width="55" height="20" rx="10" fill="#3b82f6" opacity="0.15"/>
  <rect x="570" y="502" width="35" height="8" rx="2" fill="#60a5fa"/>
  <rect x="680" y="500" width="45" height="8" rx="2" fill="#64748b"/>
  <!-- Row 3 -->
  <rect x="240" y="528" width="75" height="8" rx="2" fill="#e2e8f0" opacity="0.8"/>
  <rect x="350" y="528" width="65" height="8" rx="2" fill="#94a3b8"/>
  <rect x="460" y="528" width="45" height="8" rx="2" fill="#94a3b8"/>
  <rect x="560" y="524" width="55" height="20" rx="10" fill="#10b981" opacity="0.15"/>
  <rect x="570" y="530" width="35" height="8" rx="2" fill="#6ee7b7"/>
  <rect x="680" y="528" width="50" height="8" rx="2" fill="#64748b"/>
  <!-- Row 4 -->
  <rect x="240" y="556" width="85" height="8" rx="2" fill="#e2e8f0" opacity="0.8"/>
  <rect x="350" y="556" width="55" height="8" rx="2" fill="#94a3b8"/>
  <rect x="460" y="556" width="60" height="8" rx="2" fill="#94a3b8"/>
  <rect x="560" y="552" width="55" height="20" rx="10" fill="#14b8a6" opacity="0.15"/>
  <rect x="570" y="558" width="35" height="8" rx="2" fill="#2dd4bf"/>
  <rect x="680" y="556" width="35" height="8" rx="2" fill="#64748b"/>
</svg>