<svg xmlns="http://www.w3.org/2000/svg" viewBox="0 0 800 600" fill="none">
  <rect width="800" height="600" rx="12" fill="#0f172a"/>
  <!-- Sidebar -->
  <rect width="200" height="600" rx="12" fill="url(#sideGrad)"/>
  <defs>
    <linearGradient id="sideGrad" x1="0" y1="0" x2="0" y2="600" gradientUnits="userSpaceOnUse">
      <stop offset="0%" stop-color="#134e4a"/>
      <stop offset="100%" stop-color="#042f2e"/>
    </linearGradient>
  </defs>
  <!-- Logo area -->
  <rect x="20" y="20" width="40" height="40" rx="10" fill="#14b8a6" opacity="0.3"/>
  <rect x="68" y="28" width="100" height="12" rx="3" fill="#ccfbf1" opacity="0.8"/>
  <rect x="68" y="44" width="60" height="8" rx="2" fill="#99f6e4" opacity="0.4"/>
  <!-- Sidebar items -->
  <rect x="12" y="80" width="176" height="36" rx="8" fill="#14b8a6" opacity="0.2"/>
  <rect x="28" y="92" width="80" height="10" rx="2" fill="#ccfbf1"/>
  <rect x="28" y="130" width="70" height="10" rx="2" fill="#99f6e4" opacity="0.5"/>
  <rect x="28" y="158" width="90" height="10" rx="2" fill="#99f6e4" opacity="0.5"/>
  <rect x="28" y="186" width="60" height="10" rx="2" fill="#99f6e4" opacity="0.5"/>
  <rect x="28" y="214" width="80" height="10" rx="2" fill="#99f6e4" opacity="0.5"/>
  <rect x="28" y="242" width="75" height="10" rx="2" fill="#99f6e4" opacity="0.5"/>
  <rect x="28" y="270" width="85" height="10" rx="2" fill="#99f6e4" opacity="0.5"/>
  <rect x="28" y="298" width="65" height="10" rx="2" fill="#99f6e4" opacity="0.5"/>
  <!-- Header -->
  <rect x="216" y="16" width="200" height="16" rx="4" fill="#e2e8f0"/>
  <rect x="216" y="38" width="140" height="10" rx="3" fill="#64748b"/>
  <!-- KPI Cards Row -->
  <rect x="216" y="64" width="136" height="90" rx="10" fill="#134e4a" opacity="0.25"/>
  <rect x="232" y="80" width="60" height="8" rx="2" fill="#94a3b8"/>
  <rect x="232" y="96" width="80" height="18" rx="3" fill="#14b8a6"/>
  <rect x="232" y="122" width="50" height="8" rx="2" fill="#2dd4bf" opacity="0.6"/>
  <rect x="362" y="64" width="136" height="90" rx="10" fill="#1e3a5f" opacity="0.25"/>
  <rect x="378" y="80" width="70" height="8" rx="2" fill="#94a3b8"/>
  <rect x="378" y="96" width="60" height="18" rx="3" fill="#3b82f6"/>
  <rect x="378" y="122" width="40" height="8" rx="2" fill="#60a5fa" opacity="0.6"/>
  <rect x="508" y="64" width="136" height="90" rx="10" fill="#064e3b" opacity="0.25"/>
  <rect x="524" y="80" width="65" height="8" rx="2" fill="#94a3b8"/>
  <rect x="524" y="96" width="70" height="18" rx="3" fill="#10b981"/>
  <rect x="524" y="122" width="45" height="8" rx="2" fill="#6ee7b7" opacity="0.6"/>
  <rect x="654" y="64" width="130" height="90" rx="10" fill="#4c1d95" opacity="0.2"/>
  <rect x="670" y="80" width="55" height="8" rx="2" fill="#94a3b8"/>
  <rect x="670" y="96" width="75" height="18" rx="3" fill="#8b5cf6"/>
  <rect x="670" y="122" width="50" height="8" rx="2" fill="#a78bfa" opacity="0.6"/>
  <!-- Fleet Status Chart -->
  <rect x="216" y="170" width="380" height="200" rx="10" fill="#1e293b"/>
  <rect x="232" y="186" width="120" height="12" rx="3" fill="#e2e8f0"/>
  <rect x="232" y="204" width="80" height="8" rx="2" fill="#64748b"/>
  <!-- Bar chart -->
  <rect x="250" y="320" width="40" height="40" rx="4" fill="#14b8a6" opacity="0.9"/>
  <rect x="300" y="280" width="40" height="80" rx="4" fill="#14b8a6" opacity="0.75"/>
  <rect x="350" y="260" width="40" height="100" rx="4" fill="#14b8a6" opacity="0.6"/>
  <rect x="400" y="290" width="40" height="70" rx="4" fill="#14b8a6" opacity="0.8"/>
  <rect x="450" y="240" width="40" height="120" rx="4" fill="#2dd4bf" opacity="0.7"/>
  <rect x="500" y="270" width="40" height="90" rx="4" fill="#14b8a6" opacity="0.65"/>
  <rect x="550" y="250" width="40" height="110" rx="4" fill="#14b8a6" opacity="0.55"/>
  <!-- Delivery Trend line chart area -->
  <rect x="608" y="170" width="176" height="200" rx="10" fill="#1e293b"/>
  <rect x="624" y="186" width="100" height="12" rx="3" fill="#e2e8f0"/>
  <!-- Trend line -->
  <line x1="624" y1="340" x2="624" y2="210" stroke="#334155" stroke-width="1"/>
  <line x1="624" y1="340" x2="768" y2="340" stroke="#334155" stroke-width="1"/>
  <polyline points="634,320 654,300 674,310 694,280 714,260 734,240 754,250" stroke="#14b8a6" stroke-width="2.5" fill="none" stroke-linecap="round" stroke-linejoin="round"/>
  <polyline points="634,320 654,300 674,310 694,280 714,260 734,240 754,250 754,340 634,340" fill="#14b8a6" opacity="0.1"/>
  <!-- Active Shipments -->
  <rect x="216" y="386" width="280" height="196" rx="10" fill="#1e293b"/>
  <rect x="232" y="402" width="130" height="12" rx="3" fill="#e2e8f0"/>
  <rect x="232" y="426" width="248" height="1" fill="#334155"/>
  <!-- Shipment items -->
  <rect x="240" y="436" width="24" height="24" rx="12" fill="#14b8a6" opacity="0.2"/>
  <rect x="272" y="440" width="120" height="8" rx="2" fill="#e2e8f0" opacity="0.8"/>
  <rect x="272" y="452" width="80" height="6" rx="2" fill="#64748b"/>
  <rect x="240" y="470" width="24" height="24" rx="12" fill="#3b82f6" opacity="0.2"/>
  <rect x="272" y="474" width="140" height="8" rx="2" fill="#e2e8f0" opacity="0.8"/>
  <rect x="272" y="486" width="90" height="6" rx="2" fill="#64748b"/>
  <rect x="240" y="504" width="24" height="24" rx="12" fill="#10b981" opacity="0.2"/>
  <rect x="272" y="508" width="110" height="8" rx="2" fill="#e2e8f0" opacity="0.8"/>
  <rect x="272" y="520" width="70" height="6" rx="2" fill="#64748b"/>
  <rect x="240" y="538" width="24" height="24" rx="12" fill="#8b5cf6" opacity="0.2"/>
  <rect x="272" y="542" width="130" height="8" rx="2" fill="#e2e8f0" opacity="0.8"/>
  <rect x="272" y="554" width="85" height="6" rx="2" fill="#64748b"/>
  <!-- Driver Performance -->
  <rect x="508" y="386" width="276" height="196" rx="10" fill="#1e293b"/>
  <rect x="524" y="402" width="140" height="12" rx="3" fill="#e2e8f0"/>
  <rect x="524" y="426" width="244" height="1" fill="#334155"/>
  <!-- Driver bars -->
  <rect x="532" y="438" width="60" height="8" rx="2" fill="#94a3b8"/>
  <rect x="600" y="436" width="160" height="12" rx="3" fill="#14b8a6" opacity="0.8"/>
  <rect x="532" y="462" width="50" height="8" rx="2" fill="#94a3b8"/>
  <rect x="600" y="460" width="130" height="12" rx="3" fill="#14b8a6" opacity="0.65"/>
  <rect x="532" y="486" width="55" height="8" rx="2" fill="#94a3b8"/>
  <rect x="600" y="484" width="100" height="12" rx="3" fill="#14b8a6" opacity="0.5"/>
  <rect x="532" y="510" width="45" height="8" rx="2" fill="#94a3b8"/>
  <rect x="600" y="508" width="80" height="12" rx="3" fill="#14b8a6" opacity="0.4"/>
  <rect x="532" y="534" width="65" height="8" rx="2" fill="#94a3b8"/>
  <rect x="600" y="532" width="60" height="12" rx="3" fill="#14b8a6" opacity="0.3"/>
</svg>