<svg xmlns="http://www.w3.org/2000/svg" viewBox="0 0 800 500" fill="none">
  <defs>
    <linearGradient id="bg2" x1="0" y1="0" x2="800" y2="500" gradientUnits="userSpaceOnUse">
      <stop offset="0%" stop-color="#1e1b4b"/>
      <stop offset="100%" stop-color="#312e81"/>
    </linearGradient>
    <linearGradient id="card2" x1="0" y1="0" x2="0" y2="1">
      <stop offset="0%" stop-color="#3730a3" stop-opacity="0.4"/>
      <stop offset="100%" stop-color="#1e1b4b" stop-opacity="0.2"/>
    </linearGradient>
  </defs>
  <!-- Background -->
  <rect width="800" height="500" fill="url(#bg2)" rx="12"/>
  <!-- Sidebar -->
  <rect x="0" y="0" width="180" height="500" fill="#1e1b4b" rx="12"/>
  <rect x="180" y="0" width="1" height="500" fill="#3730a3" opacity="0.5"/>
  <rect x="20" y="20" width="36" height="36" rx="8" fill="#6366f1"/>
  <text x="30" y="44" font-family="Arial" font-size="16" font-weight="bold" fill="white">W</text>
  <!-- Sidebar nav -->
  <rect x="46" y="92" width="80" height="10" rx="3" fill="#6366f1" opacity="0.3"/>
  <rect x="12" y="116" width="156" height="36" rx="8" fill="#4338ca" opacity="0.3"/>
  <circle cx="32" cy="134" r="6" fill="#818cf8"/>
  <rect x="46" y="128" width="70" height="12" rx="3" fill="#c7d2fe" opacity="0.7"/>
  <rect x="46" y="164" width="90" height="10" rx="3" fill="#6366f1" opacity="0.3"/>
  <rect x="46" y="194" width="60" height="10" rx="3" fill="#6366f1" opacity="0.3"/>
  <!-- Header -->
  <rect x="180" y="0" width="620" height="56" fill="#1e1b4b" opacity="0.5"/>
  <rect x="200" y="18" width="160" height="20" rx="4" fill="#c7d2fe" opacity="0.3"/>
  <!-- Page title -->
  <rect x="200" y="72" width="200" height="24" rx="4" fill="#e0e7ff" opacity="0.6"/>
  <rect x="650" y="72" width="120" height="36" rx="8" fill="#6366f1"/>
  <rect x="670" y="84" width="80" height="12" rx="3" fill="white" opacity="0.9"/>
  <!-- Data table -->
  <rect x="200" y="120" width="580" height="360" rx="12" fill="url(#card2)" stroke="#4338ca" stroke-opacity="0.3"/>
  <!-- Table header -->
  <rect x="200" y="120" width="580" height="40" rx="12" fill="#312e81" opacity="0.5"/>
  <rect x="216" y="134" width="60" height="12" rx="3" fill="#a5b4fc" opacity="0.6"/>
  <rect x="320" y="134" width="80" height="12" rx="3" fill="#a5b4fc" opacity="0.6"/>
  <rect x="450" y="134" width="60" height="12" rx="3" fill="#a5b4fc" opacity="0.6"/>
  <rect x="560" y="134" width="50" height="12" rx="3" fill="#a5b4fc" opacity="0.6"/>
  <rect x="670" y="134" width="70" height="12" rx="3" fill="#a5b4fc" opacity="0.6"/>
  <!-- Table rows -->
  <rect x="216" y="176" width="80" height="10" rx="2" fill="#c7d2fe" opacity="0.4"/>
  <rect x="320" y="176" width="100" height="10" rx="2" fill="#c7d2fe" opacity="0.3"/>
  <rect x="450" y="174" width="50" height="14" rx="7" fill="#34d399" opacity="0.3"/>
  <rect x="560" y="176" width="40" height="10" rx="2" fill="#c7d2fe" opacity="0.3"/>
  <rect x="670" y="174" width="70" height="14" rx="7" fill="#818cf8" opacity="0.2"/>
  <rect x="200" y="200" width="580" height="1" fill="#4338ca" opacity="0.2"/>
  <rect x="216" y="216" width="70" height="10" rx="2" fill="#c7d2fe" opacity="0.4"/>
  <rect x="320" y="216" width="90" height="10" rx="2" fill="#c7d2fe" opacity="0.3"/>
  <rect x="450" y="214" width="60" height="14" rx="7" fill="#fbbf24" opacity="0.3"/>
  <rect x="560" y="216" width="35" height="10" rx="2" fill="#c7d2fe" opacity="0.3"/>
  <rect x="670" y="214" width="70" height="14" rx="7" fill="#818cf8" opacity="0.2"/>
  <rect x="200" y="240" width="580" height="1" fill="#4338ca" opacity="0.2"/>
  <rect x="216" y="256" width="90" height="10" rx="2" fill="#c7d2fe" opacity="0.4"/>
  <rect x="320" y="256" width="80" height="10" rx="2" fill="#c7d2fe" opacity="0.3"/>
  <rect x="450" y="254" width="50" height="14" rx="7" fill="#34d399" opacity="0.3"/>
  <rect x="560" y="256" width="45" height="10" rx="2" fill="#c7d2fe" opacity="0.3"/>
  <rect x="670" y="254" width="70" height="14" rx="7" fill="#818cf8" opacity="0.2"/>
  <rect x="200" y="280" width="580" height="1" fill="#4338ca" opacity="0.2"/>
  <rect x="216" y="296" width="75" height="10" rx="2" fill="#c7d2fe" opacity="0.4"/>
  <rect x="320" y="296" width="110" height="10" rx="2" fill="#c7d2fe" opacity="0.3"/>
  <rect x="450" y="294" width="55" height="14" rx="7" fill="#60a5fa" opacity="0.3"/>
  <rect x="560" y="296" width="50" height="10" rx="2" fill="#c7d2fe" opacity="0.3"/>
  <rect x="670" y="294" width="70" height="14" rx="7" fill="#818cf8" opacity="0.2"/>
  <rect x="200" y="320" width="580" height="1" fill="#4338ca" opacity="0.2"/>
  <rect x="216" y="336" width="85" height="10" rx="2" fill="#c7d2fe" opacity="0.4"/>
  <rect x="320" y="336" width="95" height="10" rx="2" fill="#c7d2fe" opacity="0.3"/>
  <rect x="450" y="334" width="50" height="14" rx="7" fill="#34d399" opacity="0.3"/>
  <rect x="560" y="336" width="42" height="10" rx="2" fill="#c7d2fe" opacity="0.3"/>
  <rect x="670" y="334" width="70" height="14" rx="7" fill="#818cf8" opacity="0.2"/>
  <rect x="200" y="360" width="580" height="1" fill="#4338ca" opacity="0.2"/>
  <rect x="216" y="376" width="60" height="10" rx="2" fill="#c7d2fe" opacity="0.4"/>
  <rect x="320" y="376" width="85" height="10" rx="2" fill="#c7d2fe" opacity="0.3"/>
  <rect x="450" y="374" width="60" height="14" rx="7" fill="#fbbf24" opacity="0.3"/>
  <rect x="560" y="376" width="38" height="10" rx="2" fill="#c7d2fe" opacity="0.3"/>
  <rect x="670" y="374" width="70" height="14" rx="7" fill="#818cf8" opacity="0.2"/>
  <!-- Pagination -->
  <rect x="216" y="440" width="100" height="10" rx="2" fill="#6366f1" opacity="0.3"/>
  <rect x="690" y="436" width="30" height="20" rx="4" fill="#4338ca" opacity="0.3"/>
  <rect x="726" y="436" width="30" height="20" rx="4" fill="#4338ca" opacity="0.3"/>
  <!-- Label -->
  <text x="490" y="495" font-family="Arial" font-size="11" fill="#6366f1" opacity="0.6" text-anchor="middle">Inbound Order Management</text>
</svg>
