<svg xmlns="http://www.w3.org/2000/svg" viewBox="0 0 800 500" fill="none">
  <defs>
    <linearGradient id="bg3" x1="0" y1="0" x2="800" y2="500" gradientUnits="userSpaceOnUse">
      <stop offset="0%" stop-color="#1e1b4b"/>
      <stop offset="100%" stop-color="#312e81"/>
    </linearGradient>
    <linearGradient id="card3" x1="0" y1="0" x2="0" y2="1">
      <stop offset="0%" stop-color="#3730a3" stop-opacity="0.4"/>
      <stop offset="100%" stop-color="#1e1b4b" stop-opacity="0.2"/>
    </linearGradient>
  </defs>
  <!-- Background -->
  <rect width="800" height="500" fill="url(#bg3)" rx="12"/>
  <!-- Sidebar -->
  <rect x="0" y="0" width="180" height="500" fill="#1e1b4b" rx="12"/>
  <rect x="180" y="0" width="1" height="500" fill="#3730a3" opacity="0.5"/>
  <rect x="20" y="20" width="36" height="36" rx="8" fill="#6366f1"/>
  <text x="30" y="44" font-family="Arial" font-size="16" font-weight="bold" fill="white">W</text>
  <!-- Sidebar nav -->
  <rect x="46" y="92" width="80" height="10" rx="3" fill="#6366f1" opacity="0.3"/>
  <rect x="46" y="122" width="70" height="10" rx="3" fill="#6366f1" opacity="0.3"/>
  <rect x="46" y="152" width="90" height="10" rx="3" fill="#6366f1" opacity="0.3"/>
  <rect x="12" y="176" width="156" height="36" rx="8" fill="#4338ca" opacity="0.3"/>
  <circle cx="32" cy="194" r="6" fill="#818cf8"/>
  <rect x="46" y="188" width="60" height="12" rx="3" fill="#c7d2fe" opacity="0.7"/>
  <rect x="46" y="224" width="65" height="10" rx="3" fill="#6366f1" opacity="0.3"/>
  <!-- Header -->
  <rect x="180" y="0" width="620" height="56" fill="#1e1b4b" opacity="0.5"/>
  <rect x="200" y="18" width="140" height="20" rx="4" fill="#c7d2fe" opacity="0.3"/>
  <!-- Page title -->
  <rect x="200" y="72" width="240" height="24" rx="4" fill="#e0e7ff" opacity="0.6"/>
  <!-- Zone cards grid -->
  <!-- Zone 1 - Receiving -->
  <rect x="200" y="116" width="185" height="170" rx="12" fill="url(#card3)" stroke="#4338ca" stroke-opacity="0.3"/>
  <rect x="216" y="132" width="90" height="14" rx="3" fill="#c7d2fe" opacity="0.7"/>
  <rect x="216" y="154" width="60" height="10" rx="3" fill="#818cf8" opacity="0.4"/>
  <!-- Occupancy bar -->
  <rect x="216" y="180" width="153" height="8" rx="4" fill="#312e81"/>
  <rect x="216" y="180" width="100" height="8" rx="4" fill="#34d399"/>
  <rect x="216" y="198" width="40" height="10" rx="2" fill="#34d399" opacity="0.6"/>
  <!-- Bin grid -->
  <rect x="216" y="220" width="22" height="22" rx="4" fill="#34d399" opacity="0.4"/>
  <rect x="244" y="220" width="22" height="22" rx="4" fill="#34d399" opacity="0.6"/>
  <rect x="272" y="220" width="22" height="22" rx="4" fill="#312e81" opacity="0.5"/>
  <rect x="300" y="220" width="22" height="22" rx="4" fill="#34d399" opacity="0.3"/>
  <rect x="328" y="220" width="22" height="22" rx="4" fill="#fbbf24" opacity="0.4"/>
  <rect x="216" y="248" width="22" height="22" rx="4" fill="#312e81" opacity="0.5"/>
  <rect x="244" y="248" width="22" height="22" rx="4" fill="#34d399" opacity="0.5"/>
  <rect x="272" y="248" width="22" height="22" rx="4" fill="#34d399" opacity="0.7"/>
  <rect x="300" y="248" width="22" height="22" rx="4" fill="#312e81" opacity="0.5"/>
  <rect x="328" y="248" width="22" height="22" rx="4" fill="#34d399" opacity="0.4"/>
  <!-- Zone 2 - Storage A -->
  <rect x="400" y="116" width="185" height="170" rx="12" fill="url(#card3)" stroke="#4338ca" stroke-opacity="0.3"/>
  <rect x="416" y="132" width="80" height="14" rx="3" fill="#c7d2fe" opacity="0.7"/>
  <rect x="416" y="154" width="70" height="10" rx="3" fill="#818cf8" opacity="0.4"/>
  <rect x="416" y="180" width="153" height="8" rx="4" fill="#312e81"/>
  <rect x="416" y="180" width="130" height="8" rx="4" fill="#fbbf24"/>
  <rect x="416" y="198" width="40" height="10" rx="2" fill="#fbbf24" opacity="0.6"/>
  <rect x="416" y="220" width="22" height="22" rx="4" fill="#fbbf24" opacity="0.5"/>
  <rect x="444" y="220" width="22" height="22" rx="4" fill="#34d399" opacity="0.5"/>
  <rect x="472" y="220" width="22" height="22" rx="4" fill="#fbbf24" opacity="0.4"/>
  <rect x="500" y="220" width="22" height="22" rx="4" fill="#34d399" opacity="0.6"/>
  <rect x="528" y="220" width="22" height="22" rx="4" fill="#fbbf24" opacity="0.5"/>
  <rect x="416" y="248" width="22" height="22" rx="4" fill="#34d399" opacity="0.4"/>
  <rect x="444" y="248" width="22" height="22" rx="4" fill="#fbbf24" opacity="0.6"/>
  <rect x="472" y="248" width="22" height="22" rx="4" fill="#34d399" opacity="0.5"/>
  <rect x="500" y="248" width="22" height="22" rx="4" fill="#fbbf24" opacity="0.4"/>
  <rect x="528" y="248" width="22" height="22" rx="4" fill="#ef4444" opacity="0.4"/>
  <!-- Zone 3 - Shipping -->
  <rect x="600" y="116" width="180" height="170" rx="12" fill="url(#card3)" stroke="#4338ca" stroke-opacity="0.3"/>
  <rect x="616" y="132" width="70" height="14" rx="3" fill="#c7d2fe" opacity="0.7"/>
  <rect x="616" y="154" width="80" height="10" rx="3" fill="#818cf8" opacity="0.4"/>
  <rect x="616" y="180" width="148" height="8" rx="4" fill="#312e81"/>
  <rect x="616" y="180" width="50" height="8" rx="4" fill="#60a5fa"/>
  <rect x="616" y="198" width="40" height="10" rx="2" fill="#60a5fa" opacity="0.6"/>
  <rect x="616" y="220" width="22" height="22" rx="4" fill="#312e81" opacity="0.5"/>
  <rect x="644" y="220" width="22" height="22" rx="4" fill="#60a5fa" opacity="0.4"/>
  <rect x="672" y="220" width="22" height="22" rx="4" fill="#312e81" opacity="0.5"/>
  <rect x="700" y="220" width="22" height="22" rx="4" fill="#312e81" opacity="0.5"/>
  <rect x="728" y="220" width="22" height="22" rx="4" fill="#60a5fa" opacity="0.3"/>
  <rect x="616" y="248" width="22" height="22" rx="4" fill="#60a5fa" opacity="0.5"/>
  <rect x="644" y="248" width="22" height="22" rx="4" fill="#312e81" opacity="0.5"/>
  <rect x="672" y="248" width="22" height="22" rx="4" fill="#312e81" opacity="0.5"/>
  <rect x="700" y="248" width="22" height="22" rx="4" fill="#60a5fa" opacity="0.3"/>
  <rect x="728" y="248" width="22" height="22" rx="4" fill="#312e81" opacity="0.5"/>
  <!-- Summary cards -->
  <rect x="200" y="306" width="185" height="80" rx="12" fill="url(#card3)" stroke="#4338ca" stroke-opacity="0.3"/>
  <rect x="216" y="322" width="60" height="10" rx="3" fill="#818cf8" opacity="0.4"/>
  <rect x="216" y="342" width="40" height="20" rx="4" fill="#c7d2fe" opacity="0.7"/>
  <rect x="270" y="348" width="80" height="10" rx="2" fill="#34d399" opacity="0.4"/>
  <rect x="400" y="306" width="185" height="80" rx="12" fill="url(#card3)" stroke="#4338ca" stroke-opacity="0.3"/>
  <rect x="416" y="322" width="70" height="10" rx="3" fill="#818cf8" opacity="0.4"/>
  <rect x="416" y="342" width="50" height="20" rx="4" fill="#c7d2fe" opacity="0.7"/>
  <rect x="480" y="348" width="70" height="10" rx="2" fill="#fbbf24" opacity="0.4"/>
  <rect x="600" y="306" width="180" height="80" rx="12" fill="url(#card3)" stroke="#4338ca" stroke-opacity="0.3"/>
  <rect x="616" y="322" width="50" height="10" rx="3" fill="#818cf8" opacity="0.4"/>
  <rect x="616" y="342" width="45" height="20" rx="4" fill="#c7d2fe" opacity="0.7"/>
  <rect x="675" y="348" width="60" height="10" rx="2" fill="#60a5fa" opacity="0.4"/>
  <!-- Legend -->
  <rect x="200" y="406" width="580" height="50" rx="12" fill="url(#card3)" stroke="#4338ca" stroke-opacity="0.2"/>
  <rect x="220" y="424" width="12" height="12" rx="3" fill="#34d399" opacity="0.6"/>
  <rect x="238" y="426" width="50" height="8" rx="2" fill="#c7d2fe" opacity="0.4"/>
  <rect x="310" y="424" width="12" height="12" rx="3" fill="#fbbf24" opacity="0.6"/>
  <rect x="328" y="426" width="60" height="8" rx="2" fill="#c7d2fe" opacity="0.4"/>
  <rect x="410" y="424" width="12" height="12" rx="3" fill="#ef4444" opacity="0.6"/>
  <rect x="428" y="426" width="30" height="8" rx="2" fill="#c7d2fe" opacity="0.4"/>
  <rect x="480" y="424" width="12" height="12" rx="3" fill="#312e81" opacity="0.6"/>
  <rect x="498" y="426" width="40" height="8" rx="2" fill="#c7d2fe" opacity="0.4"/>
  <!-- Label -->
  <text x="490" y="490" font-family="Arial" font-size="11" fill="#6366f1" opacity="0.6" text-anchor="middle">Space &amp; Zone Management</text>
</svg>
